<svg xmlns="http://www.w3.org/2000/svg" version="1.1" xmlns:xlink="http://www.w3.org/1999/xlink" xmlns:svgjs="http://svgjs.dev/svgjs" width="2000" height="1500" viewBox="0 0 2000 1500"><rect width="2000" height="1500" fill="#ffffff"></rect><g transform="matrix(0.75,0,0,0.75,249.09090923267786,663.305545545721)"><svg viewBox="0 0 396 46" data-background-color="#ffffff" preserveAspectRatio="xMidYMid meet" height="232" width="2000" xmlns="http://www.w3.org/2000/svg" xmlns:xlink="http://www.w3.org/1999/xlink"><g id="tight-bounds" transform="matrix(1,0,0,1,0.24000003742702347,-0.08077640863888291)"><svg viewBox="0 0 395.52 46.16155281727774" height="46.16155281727774" width="395.52"><g><svg viewBox="0 0 503.9308800568167 58.814299999999996" height="46.16155281727774" width="395.52"><g><svg viewBox="0 0 503.9308800568167 58.814299999999996" height="58.814299999999996" width="503.9308800568167"><g id="textblocktransform"><svg viewBox="0 0 503.9308800568167 58.814299999999996" height="58.814299999999996" width="503.9308800568167" id="textblock"><g><svg viewBox="0 0 503.9308800568167 58.814299999999996" height="58.814299999999996" width="503.9308800568167"><g><svg><g></g><g></g></svg></g><g><svg><g></g><g><svg></svg></g></svg></g><g id="text-0"><svg viewBox="0 0 503.9308800568167 58.814299999999996" height="58.814299999999996" width="503.9308800568167"><g transform="matrix(1,0,0,1,0,11.232149999999997)"><svg width="250.40000000000003" viewBox="4.900000095367432 -35.25 250.38999938964844 36.3510856628418" height="36.35" data-palette-color="#010c80"><path d="M4.9-34.75L6.65-34.75 20.6-17.25 34.55-34.75 36.3-34.75 36.3 0.05 32.2 0.05 32.2-22.6Q32.2-23.35 32.35-25.2L32.35-25.2Q29.95-22.1 26.58-18.18 23.2-14.25 20.55-11.45L20.55-11.45 18.55-13.7Q12.5-20.6 11.15-22.15L11.15-22.15Q10.7-22.7 10.28-23.3 9.85-23.9 9.45-24.4L9.45-24.4 8.85-25.25Q9-23.85 9-22.6L9-22.6 9 0.05 4.9 0.05 4.9-34.75ZM61.25 1.1Q56.3 1.05 52.37-1.23 48.45-3.5 46.22-7.43 44-11.35 44-16.3L44-16.3 44-17.75Q44-22.5 46.27-26.48 48.55-30.45 52.47-32.77 56.4-35.1 61.05-35.1L61.05-35.1Q65.75-35.1 69.65-32.77 73.55-30.45 75.85-26.48 78.15-22.5 78.15-17.75L78.15-17.75 78.15-16.3Q78.15-11.35 75.92-7.35 73.7-3.35 69.85-1.1 66 1.15 61.25 1.1L61.25 1.1ZM61.1-2.7Q64.75-2.7 67.7-4.48 70.65-6.25 72.35-9.35 74.05-12.45 74.05-16.3L74.05-16.3 74.05-17.75Q74.05-21.4 72.3-24.53 70.55-27.65 67.57-29.48 64.6-31.3 61-31.3L61-31.3Q57.45-31.3 54.5-29.48 51.55-27.65 49.82-24.53 48.1-21.4 48.1-17.75L48.1-17.75 48.1-16.3Q48.1-12.45 49.8-9.35 51.5-6.25 54.47-4.48 57.45-2.7 61.1-2.7L61.1-2.7ZM85.8 0.05L85.8-34.3 89.9-34.3 89.9-19.75 106.65-19.75 106.65-34.3 110.75-34.3 110.75 0.05 106.65 0.05 106.65-15.85 89.9-15.85 89.9 0.05 85.8 0.05ZM117.09 0.05L131.74-35.25 133.39-35.25 148.14 0.05 143.79 0.05 139.09-11 126.04-11 121.44 0.05 117.09 0.05ZM137.49-14.7L133.24-25.4 132.84-26.7 132.54-27.85 132.19-26.75 131.79-25.4 127.59-14.7 137.49-14.7ZM154.54-34.75L156.29-34.75 170.24-17.25 184.19-34.75 185.94-34.75 185.94 0.05 181.84 0.05 181.84-22.6Q181.84-23.35 181.99-25.2L181.99-25.2Q179.59-22.1 176.22-18.18 172.84-14.25 170.19-11.45L170.19-11.45 168.19-13.7Q162.14-20.6 160.79-22.15L160.79-22.15Q160.34-22.7 159.92-23.3 159.49-23.9 159.09-24.4L159.09-24.4 158.49-25.25Q158.64-23.85 158.64-22.6L158.64-22.6 158.64 0.05 154.54 0.05 154.54-34.75ZM195.69 0.05L195.69-34.3 218.09-34.3 218.09-30.5 199.69-30.5 199.69-20.05 213.24-20.05 213.24-16.25 199.69-16.25 199.69-3.75 219.04-3.75 219.04 0.05 195.69 0.05ZM239.39-34.55Q244.04-34.25 247.66-31.95 251.29-29.65 253.29-25.78 255.29-21.9 255.29-17.1L255.29-17.1Q255.29-12 253.06-8 250.84-4 246.89-1.75 242.94 0.5 237.89 0.5L237.89 0.5 235.39 0.5Q234.99 0.5 233.64 0.5 232.29 0.5 228.84 0.2L228.84 0.2 226.04-0.05 226.04-34.6 239.39-34.55ZM236.29-3.25Q243.49-3.25 247.34-6.8 251.19-10.35 251.19-16.95L251.19-16.95Q251.19-23.15 247.91-26.8 244.64-30.45 238.84-30.75L238.84-30.75 230.14-30.75 230.14-3.5Q233.54-3.25 236.29-3.25L236.29-3.25Z" opacity="1" transform="matrix(1,0,0,1,0,0)" fill="#010c80" class="undefined-p-0"></path></svg></g><g><svg xmlns="http://www.w3.org/2000/svg" xmlns:xlink="http://www.w3.org/1999/xlink" version="1.1" x="264.2857" y="0" viewBox="12.982999801635742 1 75.68599700927734 97.81300354003906" enable-background="new 0 0 100 100" xml:space="preserve" height="58.814299999999996" width="45.50948005681661" class="icon-s-0" data-fill-palette-color="accent" id="s-0"><g fill="#77d4fc" data-fill-palette-color="accent"><polygon fill-rule="evenodd" clip-rule="evenodd" points="12.983,10.59 30.001,98.813 24.129,39.764 53.15,37.872 53.096,27.989    64.549,1 53.622,18.977  " fill="#77d4fc" data-fill-palette-color="accent"></polygon><polygon fill-rule="evenodd" clip-rule="evenodd" points="59.389,54.548 64.549,1.007 55.809,40.723 36.197,41.768 37.767,62.23    30.001,98.813 42.058,58.914  " fill="#77d4fc" data-fill-palette-color="accent"></polygon><polygon fill-rule="evenodd" clip-rule="evenodd" points="62.8,67.182 63.349,56.729 47.37,60.484 47.338,72.281 30.001,98.813    51.681,71.197  " fill="#77d4fc" data-fill-palette-color="accent"></polygon><polygon fill-rule="evenodd" clip-rule="evenodd" points="65.711,62.394 80.552,57.663 82.061,45.131 66.162,47.226  " fill="#77d4fc" data-fill-palette-color="accent"></polygon><polygon fill-rule="evenodd" clip-rule="evenodd" points="72.07,44.502 83.058,43.085 84.639,32.807 76.56,32.434 64.549,1    72.979,31.967  " fill="#77d4fc" data-fill-palette-color="accent"></polygon><polygon fill-rule="evenodd" clip-rule="evenodd" points="87.413,31.294 88.669,21.788 79.125,19.094 64.549,1 79.032,23.437    78.61,30.437  " fill="#77d4fc" data-fill-palette-color="accent"></polygon></g></svg></g><g transform="matrix(1,0,0,1,323.6808800568166,11.232149999999994)"><svg width="180.25000000000006" viewBox="1.6500000953674316 -35.25 180.24000549316406 36.29999923706055" height="36.300000000000004" data-palette-color="#010c80"><path d="M14.15 1.05Q11.15 1.05 8.5-0.1 5.85-1.25 4.03-3.3 2.2-5.35 1.65-7.95L1.65-7.95 5.35-9.5Q6.15-6.35 8.7-4.55 11.25-2.75 14.15-2.75L14.15-2.75Q17.25-2.75 19.4-4.67 21.55-6.6 21.55-9.7L21.55-9.7Q21.55-11.85 20.3-13.25 19.05-14.65 15.9-16.15L15.9-16.15Q11.9-18.1 9.83-19.33 7.75-20.55 6.38-22.38 5-24.2 5-26.75L5-26.75Q5-29.2 6.33-31.13 7.65-33.05 9.88-34.13 12.1-35.2 14.65-35.2L14.65-35.2Q16.8-35.2 18.68-34.33 20.55-33.45 21.68-32 22.8-30.55 22.8-28.9L22.8-28.9Q22.8-28.65 22.7-28.05L22.7-28.05 18.8-28.3Q19-29.1 18.38-29.83 17.75-30.55 16.65-30.98 15.55-31.4 14.55-31.4L14.55-31.4Q12.35-31.4 10.73-30.08 9.1-28.75 9.1-26.9L9.1-26.9Q9.1-25.4 10.18-24.2 11.25-23 12.7-22.13 14.15-21.25 16.45-20.1L16.45-20.1 18.25-19.2Q22.2-17.05 23.93-14.9 25.65-12.75 25.65-9.65L25.65-9.65Q25.65-6.55 24.08-4.1 22.5-1.65 19.85-0.3 17.2 1.05 14.15 1.05L14.15 1.05ZM32.7 0.05L32.7-34.3 36.8-34.3 36.8-19.75 53.55-19.75 53.55-34.3 57.65-34.3 57.65 0.05 53.55 0.05 53.55-15.85 36.8-15.85 36.8 0.05 32.7 0.05ZM64 0.05L78.65-35.25 80.3-35.25 95.05 0.05 90.7 0.05 86-11 72.95-11 68.34 0.05 64 0.05ZM84.4-14.7L80.15-25.4 79.75-26.7 79.45-27.85 79.09-26.75 78.7-25.4 74.5-14.7 84.4-14.7ZM101.44-34.75L103.19-34.75 117.14-17.25 131.09-34.75 132.84-34.75 132.84 0.05 128.74 0.05 128.74-22.6Q128.74-23.35 128.89-25.2L128.89-25.2Q126.49-22.1 123.12-18.18 119.74-14.25 117.09-11.45L117.09-11.45 115.09-13.7Q109.04-20.6 107.69-22.15L107.69-22.15Q107.24-22.7 106.82-23.3 106.39-23.9 105.99-24.4L105.99-24.4 105.39-25.25Q105.54-23.85 105.54-22.6L105.54-22.6 105.54 0.05 101.44 0.05 101.44-34.75ZM142.59 0.05L142.59-34.3 146.69-34.3 146.69 0.05 142.59 0.05ZM180.09-3.65L181.89-0.5Q180.99 0.5 178.99 0.5L178.99 0.5Q176.39 0.5 174.79-1.6L174.79-1.6 168.99-9.55Q168.04-10.8 167.31-11.55 166.59-12.3 165.36-12.83 164.14-13.35 162.34-13.4L162.34-13.4 162.34-17.25 167.14-17.25Q170.09-17.25 171.79-18.98 173.49-20.7 173.49-23.7L173.49-23.7Q173.49-26.7 171.86-28.6 170.24-30.5 167.69-30.5L167.69-30.5 160.49-30.5 160.49 0.05 156.39 0.05 156.39-34.3 167.89-34.3Q170.59-34.3 172.81-32.9 175.04-31.5 176.31-29.18 177.59-26.85 177.59-24.2L177.59-24.2Q177.59-21 175.89-18.45 174.19-15.9 171.74-15.2L171.74-15.2Q170.54-14.85 167.74-14.85L167.74-14.85Q169.19-14.45 169.86-14.03 170.54-13.6 171.34-12.6L171.34-12.6 173.19-10.1Q177.09-4.85 177.59-4.2L177.59-4.2Q178.04-3.65 178.36-3.43 178.69-3.2 179.04-3.2L179.04-3.2Q179.64-3.2 180.09-3.65L180.09-3.65Z" opacity="1" transform="matrix(1,0,0,1,0,0)" fill="#010c80" class="undefined-p-1"></path></svg></g></svg></g></svg></g></svg></g></svg></g></svg></g><defs></defs></svg><rect width="395.52" height="46.16155281727774" fill="none" stroke="none" visibility="hidden"></rect></g></svg></g></svg>